<svg width="26" height="27" viewBox="0 0 26 27" fill="none" xmlns="http://www.w3.org/2000/svg">
<path d="M18.4545 25.6667V22.9365C18.4545 21.4883 17.9948 20.0995 17.1765 19.0755C16.3581 18.0515 15.2482 17.4762 14.0909 17.4762H5.36364C4.20633 17.4762 3.09642 18.0515 2.27808 19.0755C1.45974 20.0995 1 21.4883 1 22.9365V25.6667M25 25.6667V22.9365C24.9993 21.7267 24.6775 20.5514 24.0851 19.5952C23.4928 18.6391 22.6634 17.9561 21.7273 17.6537M17.3636 1.27271C18.3023 1.57343 19.1342 2.25652 19.7283 3.21427C20.3224 4.17202 20.6449 5.34997 20.6449 6.56239C20.6449 7.77481 20.3224 8.95275 19.7283 9.9105C19.1342 10.8683 18.3023 11.5513 17.3636 11.8521M14.0909 6.55556C14.0909 9.57121 12.1372 12.0159 9.72727 12.0159C7.3173 12.0159 5.36364 9.57121 5.36364 6.55556C5.36364 3.53991 7.3173 1.09525 9.72727 1.09525C12.1372 1.09525 14.0909 3.53991 14.0909 6.55556Z" stroke="#1B1B1B" stroke-linecap="round" stroke-linejoin="round"/>
</svg>
